<?xml version="1.0" encoding="UTF-8" standalone="no"?>
<!-- Created with Inkscape (http://www.inkscape.org/) -->

<svg
   xmlns:dc="http://purl.org/dc/elements/1.1/"
   xmlns:cc="http://creativecommons.org/ns#"
   xmlns:rdf="http://www.w3.org/1999/02/22-rdf-syntax-ns#"
   xmlns:svg="http://www.w3.org/2000/svg"
   xmlns="http://www.w3.org/2000/svg"
   xmlns:sodipodi="http://sodipodi.sourceforge.net/DTD/sodipodi-0.dtd"
   xmlns:inkscape="http://www.inkscape.org/namespaces/inkscape"
   width="280"
   height="280"
   viewBox="0 0 74.083332 74.083335"
   version="1.1"
   id="svg8"
   inkscape:version="0.92.1 r15371"
   sodipodi:docname="bestutorialheartsgameboximgDev.svg"
   inkscape:export-filename="C:\Users\User\Documents\Bes\BoardGameIdeas\_Misc\BGAStudio\BGAStudioSFTP\bestutorialhearts\img\game_box.png"
   inkscape:export-xdpi="300.44"
   inkscape:export-ydpi="300.44">
  <defs
     id="defs2" />
  <sodipodi:namedview
     id="base"
     pagecolor="#ffffff"
     bordercolor="#666666"
     borderopacity="1.0"
     inkscape:pageopacity="0.0"
     inkscape:pageshadow="2"
     inkscape:zoom="1"
     inkscape:cx="140"
     inkscape:cy="140"
     inkscape:document-units="px"
     inkscape:current-layer="layer1"
     showgrid="false"
     units="px"
     inkscape:window-width="1366"
     inkscape:window-height="705"
     inkscape:window-x="-8"
     inkscape:window-y="-8"
     inkscape:window-maximized="1" />
  <metadata
     id="metadata5">
    <rdf:RDF>
      <cc:Work
         rdf:about="">
        <dc:format>image/svg+xml</dc:format>
        <dc:type
           rdf:resource="http://purl.org/dc/dcmitype/StillImage" />
        <dc:title></dc:title>
      </cc:Work>
    </rdf:RDF>
  </metadata>
  <g
     inkscape:label="Layer 1"
     inkscape:groupmode="layer"
     id="layer1"
     transform="translate(0,-222.91665)">
    <path
       style="opacity:1;fill:#ff0000;fill-opacity:1;stroke:#808080;stroke-width:0.76200002;stroke-miterlimit:4;stroke-dasharray:none;stroke-dashoffset:0;stroke-opacity:1"
       id="path4485"
       d="m 5.9794272,236.76895 c -0.058375,1.18253 -0.075089,2.36771 -0.03311,3.55091 0.00832,2.14902 0.058472,4.29924 0.2611567,6.43933 0.1320649,0.91283 0.2916036,1.82457 0.5393383,2.71363 0.1499862,0.56798 0.2522953,1.14763 0.3662926,1.72381 0.060597,0.68211 0.2816225,1.32683 0.455232,1.98354 0.1696408,0.70954 0.3336613,1.41602 0.4146392,2.14165 0.1279453,0.73718 0.2384144,1.47599 0.3078641,2.22113 0.062415,0.86471 0.042775,1.73413 0.025122,2.6003 -0.02177,1.33429 -0.015814,2.66881 8.996e-4,4.00311 0.015483,0.8658 0.015219,1.73174 0.022701,2.59761 -0.034806,0.7688 0.064272,1.53106 0.1488189,2.29311 0.073061,0.62587 0.105243,1.25507 0.1214096,1.88463 0.021265,0.40115 -0.06569,0.89268 0.2213496,1.21808 0.3749466,0.19311 0.8286872,0.16668 1.2400702,0.17707 0.628944,-0.0403 1.197748,-0.2544 1.782617,-0.46475 0.565616,-0.17963 1.108521,-0.43058 1.618994,-0.73481 -5.7461512,3.4518 -3.08065,1.88962 -1.908017,0.8745 0.529457,-0.45251 1.10743,-0.84136 1.649526,-1.27813 0.819029,-0.80894 1.352974,-1.86646 1.785289,-2.92158 0.30751,-0.8955 0.534342,-1.81217 0.659922,-2.75003 0.09206,-0.90583 0.100074,-1.81727 0.09842,-2.72689 -0.01527,-0.92411 -0.282365,-1.81789 -0.649116,-2.65913 -0.361027,-0.7629 -0.93287,-1.36868 -1.545157,-1.93419 -0.669513,-0.56356 -1.478752,-0.82448 -2.296076,-1.07991 -0.760641,-0.23158 -1.5564931,-0.27186 -2.3455118,-0.30039 -0.7191504,-0.0193 -1.4385652,-0.013 -2.1578432,-0.008 -0.5307092,-0.003 -1.1070947,0.12348 -1.4978186,-0.30943 -0.1573459,-0.406 0.075937,-0.72149 0.4292922,-0.93124 3.3531791,-1.99044 2.3985061,-1.54194 4.0225988,-2.27851 1.5566766,-0.56894 3.0724696,-1.24032 4.6319096,-1.80111 1.190794,-0.4083 2.360653,-0.88021 3.55435,-1.27847 0.266995,-0.0568 0.527365,-0.15876 0.773818,-0.27562 0.06959,-0.033 0.26814,-0.15164 0.201205,-0.11355 -3.226121,1.83571 -4.006259,2.59018 -2.877741,1.54885 0.683085,-0.98957 1.073709,-2.16572 1.436465,-3.30496 0.234716,-0.74764 0.353268,-1.51994 0.399704,-2.2999 0.03522,-0.60147 0.02413,-0.63204 -0.466763,-0.87514 -0.635653,-0.2949 -1.28259,-0.56499 -1.933483,-0.82558 -0.935146,-0.52729 -1.911148,-0.96509 -2.881604,-1.42095 -0.771413,-0.42809 -1.613646,-0.67931 -2.447149,-0.9508 -0.5730434,-0.15655 -1.1633561,-0.214 -1.7235814,-0.41767 -0.523784,-0.15296 -1.0141667,-0.3874 -1.5152399,-0.59866 -0.4879742,-0.19248 -1.0102445,-0.23293 -1.5286227,-0.25734 -0.5262452,-0.0162 -1.0528517,-0.0115 -1.5792635,-0.01 -0.088199,2.9e-4 -0.1763983,5.8e-4 -0.2645974,9e-4 0,0 3.1544424,-2.29323 3.1544424,-2.29323 v 0 c 0.088259,-2.2e-4 0.1765173,-4.3e-4 0.2647759,-6.4e-4 0.5318911,-4.5e-4 1.0644653,-0.004 1.595456,0.032 0.5491869,0.0492 1.09416,0.13732 1.6008276,0.36717 0.488978,0.21376 0.985217,0.40748 1.49335,0.57145 0.567482,0.16289 1.160495,0.2208 1.715504,0.43004 0.826347,0.29902 1.654316,0.5886 2.427345,1.01466 0.966491,0.45626 1.927612,0.92123 2.890274,1.38448 0.675013,0.25912 1.345881,0.53194 2.00413,0.83075 0.508271,0.28234 0.740896,0.67637 0.670296,1.27231 -0.04612,0.82232 -0.173332,1.63537 -0.427859,2.42143 -0.372172,1.15886 -0.790881,2.31379 -1.314979,3.4118 -0.994817,1.55896 -3.010233,2.18651 -4.725103,2.73663 -1.140206,0.39394 -2.287421,0.76684 -3.419252,1.18479 -1.5913267,0.59472 -3.1574044,1.25767 -4.7205088,1.92231 -1.4892594,0.79117 0.059449,-0.0253 2.6112684,-1.53447 0.2336705,-0.1382 -0.7677321,0.48085 -0.6890165,0.28929 0.2650781,0.20255 0.9593032,0.008 1.2793446,0.0731 0.7166083,0.003 1.4337093,0.003 2.1496393,0.0375 0.813021,0.0489 1.630044,0.11172 2.406105,0.37999 0.857595,0.27529 1.679005,0.64348 2.371789,1.2336 0.650241,0.60617 1.264009,1.24413 1.634247,2.06714 0.380936,0.88922 0.667275,1.83303 0.710842,2.80484 -0.0048,0.91989 0.02369,1.84277 -0.06112,2.75985 -0.10874,0.97806 -0.360811,1.91916 -0.657919,2.85625 -0.410038,1.09268 -0.967239,2.1296 -1.652788,3.07543 -0.527859,0.4518 -1.093738,0.8481 -1.641694,1.27253 -0.229969,0.18738 -0.432355,0.41124 -0.668103,0.59024 -1.252603,0.95106 -2.776443,1.61938 -4.060886,2.43673 -0.5308056,0.26533 -1.0753822,0.50018 -1.6433955,0.67543 -0.6076558,0.21354 -1.2312054,0.36673 -1.880884,0.35354 -0.522306,-0.0274 -1.060972,-0.0525 -1.451139,-0.44728 -0.3080314,-0.43227 -0.3437641,-0.9273 -0.3212325,-1.44758 -0.00737,-0.62339 -0.023482,-1.24707 -0.082014,-1.86811 -0.074526,-0.775 -0.2077418,-1.54622 -0.1698728,-2.32724 0.00767,-0.87395 0.00785,-1.74797 0.024405,-2.62183 0.018169,-1.3348 0.02736,-2.66989 0.0042,-4.0047 -0.020738,-0.84766 -0.023561,-1.6959 -0.070672,-2.54275 -0.050716,-0.74495 -0.1476817,-1.48368 -0.2904225,-2.2169 -0.078804,-0.7069 -0.2316256,-1.39504 -0.4011698,-2.08501 -0.1726263,-0.66406 -0.3983855,-1.31656 -0.4732287,-2.00266 -0.1076351,-0.56927 -0.2365581,-1.1336 -0.3513275,-1.7012 -0.2375868,-0.93111 -0.3555603,-1.88538 -0.4519123,-2.84097 -0.11328,-2.14424 -0.1038627,-4.29396 -0.2958378,-6.43376 -0.061699,-1.16716 -0.027179,-2.33658 -0.096407,-3.5037 0,0 3.4921877,-1.77935 3.4921877,-1.77935 z"
       inkscape:connector-curvature="0" />
    <path
       style="opacity:1;fill:#ff0000;fill-opacity:1;stroke:#808080;stroke-width:0.76200002;stroke-miterlimit:4;stroke-dasharray:none;stroke-dashoffset:0;stroke-opacity:1"
       id="path4487"
       d="m 31.078053,251.37823 c -0.37443,1.17095 -0.708422,2.35497 -1.059114,3.53335 -0.535051,1.74237 -0.928513,3.52404 -1.297011,5.30773 -0.345832,1.71783 -0.599062,3.44866 -0.736931,5.19512 -0.06162,1.19619 -0.13209,2.39802 -0.06302,3.59515 0.03688,0.8337 0.285062,1.61731 0.580969,2.38868 0.309369,0.72814 0.744791,1.39471 1.182322,2.05096 0.464003,0.70564 1.132986,1.23104 1.742049,1.80351 0.535572,0.50224 1.0966,0.99024 1.719704,1.38128 0.65436,0.4233 1.421717,0.58048 2.169115,0.75725 0.674743,0.11537 1.38136,0.26299 2.065187,0.15708 0,0 -3.135495,2.30998 -3.135495,2.30998 v 0 c -0.710568,-0.0117 -1.420842,-0.10105 -2.11119,-0.27125 -0.782492,-0.20138 -1.569551,-0.3983 -2.247035,-0.86187 -0.626607,-0.42506 -1.209648,-0.91119 -1.745377,-1.44678 -0.626279,-0.59623 -1.317535,-1.13827 -1.783444,-1.8795 -0.455107,-0.67957 -0.922069,-1.36195 -1.234944,-2.12157 -0.30459,-0.81142 -0.584167,-1.62949 -0.60839,-2.50747 -0.06941,-1.22366 0.0146,-2.45151 0.09653,-3.67285 0.161917,-1.76452 0.419906,-3.51448 0.756665,-5.25438 0.369252,-1.78459 0.743903,-3.57048 1.254825,-5.32117 0.33187,-1.15114 0.661458,-2.30578 0.909381,-3.47829 0,0 3.545202,-1.66496 3.545202,-1.66496 z"
       inkscape:connector-curvature="0" />
    <path
       style="opacity:1;fill:#ff5555;fill-opacity:1;stroke:#808080;stroke-width:0.76200002;stroke-miterlimit:4;stroke-dasharray:none;stroke-dashoffset:0;stroke-opacity:1"
       id="path4489"
       d="m 25.341756,257.01254 c 1.012747,0.15545 2.023312,0.32632 3.037653,0.47396 1.341877,0.13266 2.660031,0.42017 3.993089,0.61191 0.985808,0.1409 1.958239,0.35267 2.937957,0.52776 0,0 -3.1458,2.19639 -3.1458,2.19639 v 0 c -0.964163,-0.19467 -1.92409,-0.40929 -2.900799,-0.53563 -1.324309,-0.20724 -2.638785,-0.47869 -3.972736,-0.62192 -1.051361,-0.14274 -2.103069,-0.28154 -3.157259,-0.40179 0,0 3.207895,-2.25068 3.207895,-2.25068 z"
       inkscape:connector-curvature="0" />
    <path
       style="opacity:1;fill:#ff5555;fill-opacity:1;stroke:#808080;stroke-width:0.76200002;stroke-miterlimit:4;stroke-dasharray:none;stroke-dashoffset:0;stroke-opacity:1"
       id="path4491"
       d="m 46.72526,240.7377 c -0.161856,1.64825 -0.428183,3.2822 -0.737127,4.90847 -0.576106,3.00622 -1.091059,6.02293 -1.502888,9.05615 -0.344096,3.10875 -0.554911,6.23184 -0.684406,9.35652 -0.05815,2.12751 -0.08278,4.25392 -0.172397,6.38048 -0.02201,0.87273 -0.104913,1.74769 -0.06663,2.62115 0.0039,0.0203 0.03015,0.0516 0.01172,0.0609 -3.796377,1.92469 -3.757366,2.79716 -3.342008,0.28889 0.181026,-1.59642 0.625671,-3.12423 1.149938,-4.63605 0.711192,-1.97269 1.661096,-3.8409 2.70288,-5.65603 1.125913,-1.86071 2.366018,-3.64991 3.706699,-5.36165 1.971193,-2.43283 3.141157,-2.73462 6.1997,-4.43023 1.137153,-0.18004 1.753227,0.24394 2.499445,1.04865 0.990327,1.23683 1.47661,2.73436 1.884317,4.23999 0.479664,2.02757 0.708184,4.0997 0.84668,6.17482 0.114163,1.6584 0.134017,3.32064 0.152527,4.98218 -0.01262,0.9717 0.06901,1.94366 0.28234,2.89175 0,0 -3.415424,1.83245 -3.415424,1.83245 v 0 c -0.203396,-0.98796 -0.267539,-1.99652 -0.239123,-3.00512 0.01172,-1.66727 0.0108,-3.33548 -0.06371,-5.00149 -0.128252,-2.04927 -0.334857,-4.09554 -0.840452,-6.09156 -0.407543,-1.43556 -0.880435,-2.87492 -1.873213,-4.02578 -0.708541,-0.67823 -1.268634,-0.98477 -2.254882,-0.66201 5.684028,-3.37993 2.920669,-1.86906 1.916089,-1.07135 -0.619035,0.49155 -1.158902,1.05846 -1.675128,1.65647 -1.372539,1.68761 -2.634017,3.461 -3.758808,5.3243 -1.043712,1.7861 -1.986788,3.62778 -2.697493,5.57495 -0.505296,1.47559 -0.970524,2.95761 -1.077709,4.5257 -0.34326,2.47775 0.566812,1.01907 -3.637383,3.16975 -0.01987,0.0102 0.01389,-0.0425 0.02082,-0.0637 0.109135,-0.89473 0.101907,-1.80148 0.201289,-2.69749 0.176133,-2.14675 0.25305,-4.29671 0.321091,-6.44937 0.171497,-3.14315 0.40469,-6.28342 0.734422,-9.41415 0.37955,-3.01888 0.8846,-6.01787 1.384853,-9.01848 0.273167,-1.56364 0.495805,-3.14034 0.531789,-4.72982 0,0 3.492188,-1.77935 3.492188,-1.77935 z"
       inkscape:connector-curvature="0" />
  </g>
</svg>
